<svg width="2648" height="1109" xmlns="http://www.w3.org/2000/svg" xmlns:xlink="http://www.w3.org/1999/xlink" xml:space="preserve" overflow="hidden"><defs><clipPath id="clip0"><rect x="579" y="682" width="2648" height="1109"/></clipPath><linearGradient x1="983" y1="880" x2="983" y2="1689" gradientUnits="userSpaceOnUse" spreadMethod="reflect" id="fill1"><stop offset="0" stop-color="#FF2B2E"/><stop offset="0.0172414" stop-color="#FF2A2F"/><stop offset="0.0344828" stop-color="#FF2A31"/><stop offset="0.0517241" stop-color="#FF2A33"/><stop offset="0.0689655" stop-color="#FF2A35"/><stop offset="0.0862069" stop-color="#FF2A37"/><stop offset="0.103448" stop-color="#FF2A38"/><stop offset="0.12069" stop-color="#FF2A3A"/><stop offset="0.137931" stop-color="#FF293C"/><stop offset="0.155172" stop-color="#FF293D"/><stop offset="0.172414" stop-color="#FF293F"/><stop offset="0.189655" stop-color="#FF2941"/><stop offset="0.206897" stop-color="#FF2842"/><stop offset="0.224138" stop-color="#FF2844"/><stop offset="0.241379" stop-color="#FF2845"/><stop offset="0.258621" stop-color="#FF2747"/><stop offset="0.275862" stop-color="#FF2748"/><stop offset="0.293103" stop-color="#FF264A"/><stop offset="0.310345" stop-color="#FF264B"/><stop offset="0.327586" stop-color="#FF254C"/><stop offset="0.344828" stop-color="#FF254E"/><stop offset="0.362069" stop-color="#FF244F"/><stop offset="0.37931" stop-color="#FF2450"/><stop offset="0.396552" stop-color="#FF2352"/><stop offset="0.413793" stop-color="#FF2253"/><stop offset="0.431034" stop-color="#FF2254"/><stop offset="0.448276" stop-color="#FF2155"/><stop offset="0.465517" stop-color="#FF2056"/><stop offset="0.482759" stop-color="#FF2057"/><stop offset="0.5" stop-color="#FF1F58"/><stop offset="0.517241" stop-color="#FF1E59"/><stop offset="0.534483" stop-color="#FF1D5A"/><stop offset="0.551724" stop-color="#FF1C5B"/><stop offset="0.568965" stop-color="#FF1C5C"/><stop offset="0.586207" stop-color="#FF1B5D"/><stop offset="0.603448" stop-color="#FF1A5E"/><stop offset="0.62069" stop-color="#FF195F"/><stop offset="0.637931" stop-color="#FF1860"/><stop offset="0.655172" stop-color="#FF1760"/><stop offset="0.672414" stop-color="#FF1661"/><stop offset="0.689655" stop-color="#FF1562"/><stop offset="0.706897" stop-color="#FF1463"/><stop offset="0.724138" stop-color="#FF1363"/><stop offset="0.741379" stop-color="#FF1264"/><stop offset="0.758621" stop-color="#FF1164"/><stop offset="0.775862" stop-color="#FF1065"/><stop offset="0.793103" stop-color="#FF0F65"/><stop offset="0.810345" stop-color="#FF0E66"/><stop offset="0.827586" stop-color="#FF0C66"/><stop offset="0.844828" stop-color="#FF0B67"/><stop offset="0.862069" stop-color="#FF0A67"/><stop offset="0.87931" stop-color="#FF0967"/><stop offset="0.896552" stop-color="#FF0768"/><stop offset="0.913793" stop-color="#FF0668"/><stop offset="0.931035" stop-color="#FF0568"/><stop offset="0.948276" stop-color="#FF0468"/><stop offset="0.965517" stop-color="#FF0268"/><stop offset="0.982759" stop-color="#FF0168"/><stop offset="1" stop-color="#FF0069"/></linearGradient></defs><g clip-path="url(#clip0)" transform="translate(-579 -682)"><path d="M579 1284.5C579 1061.1 759.877 880 983 880 1206.12 880 1387 1061.1 1387 1284.5 1387 1507.9 1206.12 1689 983 1689 759.877 1689 579 1507.9 579 1284.5Z" fill="url(#fill1)" fill-rule="evenodd"/><path d="M769.259 981 1068.74 1214.23 1068.74 1200.99C1068.74 1131.94 1068.74 1062.93 1068.52 993.92 1068.52 983.701 1071.67 981.36 1081.2 981.495 1116.01 981.99 1150.87 981.945 1185.68 981.495 1194.27 981.495 1197.64 983.611 1197.64 992.929 1197.64 1104.93 1198.45 1216.98 1197.64 1328.98 1197.21 1453.42 1108.48 1560 986.261 1582.87 972.768 1585.3 959.276 1586.02 945.784 1587.37 938.813 1588.18 935.889 1585.7 935.934 1578.37 936.204 1541.54 936.294 1504.77 935.934 1467.99 935.934 1459.39 940.432 1458.98 946.728 1458.17 998.719 1453.09 1035.64 1426.35 1058.22 1379.44 1060.6 1374.53 1062.22 1370.44 1056.42 1365.93 1004.79 1326.68 953.384 1287.2 902.203 1247.5 901.214 1246.78 900.045 1246.28 897.301 1244.75L897.301 1573.64C897.301 1587.73 897.301 1587.78 883.584 1587.78 848.774 1587.78 813.964 1587.78 779.154 1588 770.518 1588 768 1585.12 768 1576.7 768.18 1382.26 768.18 1187.85 768 993.47 768 990.363 768.72 987.257 769.259 981Z" fill="#FFFFFF" fill-rule="evenodd"/><text fill="#666666" font-family="Roboto,Roboto_MSFontService,sans-serif" font-weight="700" font-size="527" transform="matrix(1 0 0 1 1447.41 1342)">NITIN</text><text fill="#666666" font-family="Roboto,Roboto_MSFontService,sans-serif" font-weight="400" font-size="248" transform="matrix(1 0 0 1 1447.41 1578)">JAISWAL</text></g></svg>