<svg width="2338" height="809" xmlns="http://www.w3.org/2000/svg" xmlns:xlink="http://www.w3.org/1999/xlink" xml:space="preserve" overflow="hidden"><defs><clipPath id="clip0"><rect x="235" y="1051" width="2338" height="809"/></clipPath><linearGradient x1="639.5" y1="1051" x2="639.5" y2="1860" gradientUnits="userSpaceOnUse" spreadMethod="reflect" id="fill1"><stop offset="0" stop-color="#FF2B2E"/><stop offset="0.0172414" stop-color="#FF2A2F"/><stop offset="0.0344828" stop-color="#FF2A31"/><stop offset="0.0517241" stop-color="#FF2A33"/><stop offset="0.0689655" stop-color="#FF2A35"/><stop offset="0.0862069" stop-color="#FF2A37"/><stop offset="0.103448" stop-color="#FF2A38"/><stop offset="0.12069" stop-color="#FF2A3A"/><stop offset="0.137931" stop-color="#FF293C"/><stop offset="0.155172" stop-color="#FF293D"/><stop offset="0.172414" stop-color="#FF293F"/><stop offset="0.189655" stop-color="#FF2941"/><stop offset="0.206897" stop-color="#FF2842"/><stop offset="0.224138" stop-color="#FF2844"/><stop offset="0.241379" stop-color="#FF2845"/><stop offset="0.258621" stop-color="#FF2747"/><stop offset="0.275862" stop-color="#FF2748"/><stop offset="0.293103" stop-color="#FF264A"/><stop offset="0.310345" stop-color="#FF264B"/><stop offset="0.327586" stop-color="#FF254C"/><stop offset="0.344828" stop-color="#FF254E"/><stop offset="0.362069" stop-color="#FF244F"/><stop offset="0.37931" stop-color="#FF2450"/><stop offset="0.396552" stop-color="#FF2352"/><stop offset="0.413793" stop-color="#FF2253"/><stop offset="0.431034" stop-color="#FF2254"/><stop offset="0.448276" stop-color="#FF2155"/><stop offset="0.465517" stop-color="#FF2056"/><stop offset="0.482759" stop-color="#FF2057"/><stop offset="0.5" stop-color="#FF1F58"/><stop offset="0.517241" stop-color="#FF1E59"/><stop offset="0.534483" stop-color="#FF1D5A"/><stop offset="0.551724" stop-color="#FF1C5B"/><stop offset="0.568965" stop-color="#FF1C5C"/><stop offset="0.586207" stop-color="#FF1B5D"/><stop offset="0.603448" stop-color="#FF1A5E"/><stop offset="0.62069" stop-color="#FF195F"/><stop offset="0.637931" stop-color="#FF1860"/><stop offset="0.655172" stop-color="#FF1760"/><stop offset="0.672414" stop-color="#FF1661"/><stop offset="0.689655" stop-color="#FF1562"/><stop offset="0.706897" stop-color="#FF1463"/><stop offset="0.724138" stop-color="#FF1363"/><stop offset="0.741379" stop-color="#FF1264"/><stop offset="0.758621" stop-color="#FF1164"/><stop offset="0.775862" stop-color="#FF1065"/><stop offset="0.793103" stop-color="#FF0F65"/><stop offset="0.810345" stop-color="#FF0E66"/><stop offset="0.827586" stop-color="#FF0C66"/><stop offset="0.844828" stop-color="#FF0B67"/><stop offset="0.862069" stop-color="#FF0A67"/><stop offset="0.87931" stop-color="#FF0967"/><stop offset="0.896552" stop-color="#FF0768"/><stop offset="0.913793" stop-color="#FF0668"/><stop offset="0.931035" stop-color="#FF0568"/><stop offset="0.948276" stop-color="#FF0468"/><stop offset="0.965517" stop-color="#FF0268"/><stop offset="0.982759" stop-color="#FF0168"/><stop offset="1" stop-color="#FF0069"/></linearGradient></defs><g clip-path="url(#clip0)" transform="translate(-235 -1051)"><path d="M235 1455.5C235 1232.1 416.101 1051 639.5 1051 862.899 1051 1044 1232.1 1044 1455.5 1044 1678.9 862.899 1860 639.5 1860 416.101 1860 235 1678.9 235 1455.5Z" fill="url(#fill1)" fill-rule="evenodd"/><path d="M425.259 1152 724.744 1385.23 724.744 1371.99C724.744 1302.94 724.744 1233.93 724.519 1164.92 724.519 1154.7 727.667 1152.36 737.202 1152.5 772.012 1152.99 806.867 1152.95 841.677 1152.5 850.267 1152.5 853.64 1154.61 853.64 1163.93 853.64 1275.93 854.45 1387.98 853.64 1499.98 853.209 1624.42 764.477 1731 642.261 1753.87 628.768 1756.3 615.276 1757.02 601.784 1758.37 594.813 1759.18 591.889 1756.7 591.934 1749.37 592.204 1712.54 592.294 1675.76 591.934 1638.99 591.934 1630.39 596.432 1629.98 602.728 1629.17 654.719 1624.09 691.642 1597.35 714.22 1550.44 716.603 1545.53 718.222 1541.44 712.421 1536.93 660.79 1497.68 609.384 1458.2 558.203 1418.5 557.214 1417.78 556.045 1417.28 553.301 1415.75L553.301 1744.64C553.301 1758.73 553.301 1758.78 539.584 1758.78 504.774 1758.78 469.964 1758.78 435.153 1759 426.518 1759 424 1756.12 424 1747.7 424.18 1553.26 424.18 1358.85 424 1164.47 424 1161.36 424.719 1158.26 425.259 1152Z" fill="#FFFFFF" fill-rule="evenodd"/><path d="M1169 1151 1246.03 1151 1396.23 1397.59 1396.23 1151 1473 1151 1473 1525 1395.97 1525 1246.03 1278.92 1246.03 1525 1169 1525 1169 1151Z" fill="#666666" fill-rule="evenodd"/><path d="M1562 1151 1639 1151 1639 1525 1562 1525 1562 1151Z" fill="#666666" fill-rule="evenodd"/><path d="M1706 1151 2011 1151 2011 1213.42 1896.3 1213.42 1896.3 1525 1819.15 1525 1819.15 1213.42 1706 1213.42 1706 1151Z" fill="#666666" fill-rule="evenodd"/><path d="M2078 1151 2155 1151 2155 1525 2078 1525 2078 1151Z" fill="#666666" fill-rule="evenodd"/><path d="M2245 1151 2322.03 1151 2472.23 1397.59 2472.23 1151 2549 1151 2549 1525 2471.97 1525 2322.03 1278.92 2322.03 1525 2245 1525 2245 1151Z" fill="#666666" fill-rule="evenodd"/><path d="M1784.45 1580C1796.55 1580 1807.34 1582.34 1816.81 1587.02 1826.29 1591.7 1833.63 1598.15 1838.83 1606.38 1844.04 1614.6 1846.64 1623.6 1846.64 1633.36L1823.29 1633.36C1823.29 1622.67 1819.9 1614.27 1813.12 1608.16 1806.35 1602.05 1796.79 1599 1784.45 1599 1773 1599 1764.07 1601.52 1757.65 1606.57 1751.24 1611.62 1748.04 1618.63 1748.04 1627.6 1748.04 1634.79 1751.08 1640.87 1757.17 1645.84 1763.26 1650.81 1773.62 1655.36 1788.26 1659.48 1802.9 1663.6 1814.35 1668.14 1822.62 1673.1 1830.89 1678.06 1837.02 1683.85 1841.01 1690.46 1845 1697.08 1847 1704.86 1847 1713.81 1847 1728.09 1841.43 1739.52 1830.3 1748.11 1819.17 1756.71 1804.29 1761 1785.66 1761 1773.56 1761 1762.27 1758.68 1751.79 1754.04 1741.3 1749.41 1733.22 1743.05 1727.53 1734.99 1721.84 1726.92 1719 1717.77 1719 1707.52L1742.35 1707.52C1742.35 1718.17 1746.28 1726.58 1754.15 1732.75 1762.01 1738.92 1772.52 1742 1785.66 1742 1797.92 1742 1807.32 1739.5 1813.85 1734.5 1820.38 1729.5 1823.65 1722.69 1823.65 1714.06 1823.65 1705.43 1820.63 1698.75 1814.58 1694.03 1808.53 1689.31 1797.56 1684.66 1781.67 1680.06 1761.75 1674.33 1747.25 1667.29 1738.18 1658.95 1729.1 1650.6 1724.57 1640.29 1724.57 1628.03 1724.57 1614.16 1730.11 1602.69 1741.2 1593.61 1752.29 1584.54 1766.71 1580 1784.45 1580Z" fill="#666666" fill-rule="evenodd"/><path d="M1229.69 1582 1253 1582 1253 1707.03C1253 1723.93 1247.95 1737.15 1237.84 1746.69 1227.74 1756.23 1214.27 1761 1197.44 1761 1179.97 1761 1166.36 1756.51 1156.61 1747.54 1146.87 1738.56 1142 1725.99 1142 1709.82L1165.19 1709.82C1165.19 1719.93 1167.95 1727.81 1173.46 1733.47 1178.98 1739.13 1186.97 1741.96 1197.44 1741.96 1207.02 1741.96 1214.77 1738.93 1220.69 1732.86 1226.61 1726.8 1229.61 1718.31 1229.69 1707.4L1229.69 1582Z" fill="#666666" fill-rule="evenodd"/><path d="M1412.28 1582 1432.6 1582 1500 1758 1476.16 1758 1459.34 1711.94 1385.54 1711.94 1368.96 1758 1345 1758 1412.28 1582ZM1422.44 1610.65 1392.55 1692.97 1452.45 1692.97 1422.44 1610.65Z" fill="#666666" fill-rule="evenodd"/><path d="M1594 1582 1618 1582 1618 1758 1594 1758 1594 1582Z" fill="#666666" fill-rule="evenodd"/><path d="M1934 1582 1957.21 1582 1985.02 1702.52 1988.41 1725.72 1993.37 1704.81 2028.19 1582 2047.78 1582 2081.75 1704.81 2086.59 1726.09 2090.34 1702.4 2117.66 1582 2141 1582 2098.32 1758 2077.16 1758 2040.89 1629.75 2038.1 1616.33 2035.32 1629.75 1997.72 1758 1976.56 1758 1934 1582Z" fill="#666666" fill-rule="evenodd"/><path d="M2285.28 1582 2305.6 1582 2373 1758 2349.16 1758 2332.34 1711.94 2258.53 1711.94 2241.96 1758 2218 1758 2285.28 1582ZM2295.44 1610.65 2265.55 1692.97 2325.45 1692.97 2295.44 1610.65Z" fill="#666666" fill-rule="evenodd"/><path d="M2466 1582 2489.39 1582 2489.39 1739.02 2573 1739.02 2573 1758 2466 1758 2466 1582Z" fill="#666666" fill-rule="evenodd"/></g></svg>